<svg xmlns="http://www.w3.org/2000/svg" viewBox="0 0 976 720">
  <path fill="currentColor" d="
M297.831787,478.788879 
	C339.615326,453.572357 378.855072,425.234924 419.250916,395.864838 
	C419.250916,403.318481 419.294403,409.217896 419.225708,415.115967 
	C419.203705,417.005432 417.591095,417.888977 416.318756,418.956055 
	C363.458923,463.288971 309.645203,506.421417 252.013458,544.446106 
	C237.555420,553.985352 229.342514,568.094482 219.420639,581.038452 
	C193.354553,615.044006 166.151627,648.068604 136.543411,679.047852 
	C128.207123,687.770203 117.675606,693.291565 105.729286,695.430237 
	C89.376488,698.357727 75.060005,686.534302 74.719643,669.878357 
	C74.375473,653.036133 80.662964,638.344177 90.261635,624.894165 
	C105.939400,602.925720 125.996292,585.503113 147.619705,569.684692 
	C160.815430,560.031494 174.498123,551.141235 188.636093,542.956726 
	C192.120636,540.939514 194.336014,537.975098 196.525024,534.810242 
	C239.401077,472.821503 278.922546,408.775299 314.600098,342.370972 
	C317.753662,336.501434 320.799927,330.574158 323.878357,324.664490 
	C324.411530,323.640961 325.005432,322.595520 324.368011,321.243317 
	C322.452362,320.356323 321.311890,322.004028 320.180908,322.940399 
	C278.205566,357.693878 234.174576,389.772125 190.784256,422.688934 
	C176.996674,433.148438 164.198151,444.910553 149.911499,454.751709 
	C137.949326,462.991699 125.562164,470.458130 111.713547,475.215332 
	C88.065735,483.338745 65.316849,473.738525 50.428402,456.173157 
	C36.245846,439.440735 29.228163,419.775635 26.725037,398.394348 
	C22.844847,365.250519 28.765268,333.411804 41.046040,302.677734 
	C60.867245,253.072845 92.081406,211.299850 130.243500,174.429611 
	C170.823364,135.223450 218.242096,106.101120 268.390411,81.012939 
	C309.322754,60.535313 351.628174,43.636974 396.063904,32.454479 
	C409.884003,28.976580 423.816620,25.595211 438.264374,25.639690 
	C456.421234,25.695589 466.640167,32.486904 472.371033,49.770336 
	C477.480469,65.179588 478.893646,80.742935 470.227905,95.666718 
	C465.985291,102.973175 460.212128,108.947105 453.795959,114.321678 
	C431.935669,132.633148 407.158508,146.307938 381.980530,159.330734 
	C372.957428,163.997772 363.926361,168.658096 354.341522,172.115280 
	C353.402130,172.454117 352.483124,172.932892 351.513519,173.085800 
	C349.911987,173.338318 348.009857,173.962845 346.916199,172.278900 
	C345.871643,170.670486 346.740967,169.001450 347.808899,167.678040 
	C350.323669,164.561752 353.242340,161.851776 356.247375,159.190521 
	C365.718597,150.802765 376.745453,144.252243 385.228302,134.712952 
	C390.756500,128.496292 395.538879,121.830658 397.759644,113.122055 
	C391.981659,112.835182 387.390015,115.023331 382.759186,116.524536 
	C335.840698,131.734406 292.409912,153.977020 251.693848,181.708176 
	C219.542358,203.606094 188.786407,227.245926 161.649033,255.207382 
	C130.822571,286.969971 104.399979,321.949646 86.427025,362.745697 
	C81.991432,372.813843 78.366791,383.205566 76.723793,394.147552 
	C74.125061,411.454498 86.790329,432.779053 111.840858,426.938141 
	C129.977951,422.709167 145.028458,412.427582 160.023758,402.238617 
	C196.321991,377.574890 229.866501,349.330750 263.573578,321.337463 
	C287.539886,301.433716 311.637604,281.676758 334.901093,260.934082 
	C346.137268,250.915421 356.273987,239.929169 365.473969,228.038147 
	C368.538055,224.077789 372.022980,220.470886 375.869293,217.271912 
	C385.675415,209.116196 396.684906,205.699051 409.221191,209.386398 
	C411.418518,207.712372 411.747925,205.267624 412.470520,203.151459 
	C416.605408,191.042267 420.977814,179.029953 423.173950,166.313644 
	C426.781281,145.426132 439.387451,130.196533 455.314697,117.309998 
	C469.641174,105.718620 485.615448,96.745926 502.027679,88.521416 
	C504.093903,87.485985 506.375793,86.860550 508.591156,86.149124 
	C510.647095,85.488869 512.794434,85.563034 513.873657,87.642784 
	C515.020020,89.851898 513.464722,91.411331 511.747986,92.636864 
	C503.719238,98.368454 496.228638,104.705170 489.821381,112.241676 
	C487.800140,114.619171 485.926880,117.122444 483.591339,120.065277 
	C487.459686,121.078339 490.046143,119.295021 492.675659,118.394745 
	C519.140381,109.333923 545.459717,99.834618 572.034729,91.113106 
	C605.539246,80.117439 638.870850,68.447044 673.503357,61.275177 
	C685.711304,58.747082 698.024109,57.211559 710.521729,56.497990 
	C723.096191,55.780033 731.632507,61.431202 738.047607,71.222580 
	C744.090149,80.445198 748.661499,90.483200 752.208557,100.907814 
	C756.360229,113.108971 751.061829,123.416313 744.651489,133.170746 
	C727.908081,158.648865 710.963074,183.994461 694.116089,209.404587 
	C693.240356,210.725555 691.847534,211.834290 692.017944,213.727737 
	C693.901489,214.097229 695.191772,212.888733 696.638550,212.175507 
	C773.903931,174.082397 849.734009,133.220566 926.047791,93.291245 
	C931.498779,90.439140 937.138855,87.905815 942.837952,85.585060 
	C946.779968,83.979805 951.151489,83.222977 954.459717,86.821671 
	C957.809753,90.465897 956.462036,94.592018 954.507935,98.465721 
	C943.119507,121.041451 927.894287,140.727905 909.074097,157.533585 
	C901.175049,164.587082 892.220520,169.175186 881.287354,163.558609 
	C878.751709,162.255951 876.505859,163.497147 874.228821,164.676514 
	C833.698547,185.668777 792.856079,206.042725 751.873840,226.133408 
	C719.567749,241.970749 687.159058,257.599060 654.750671,273.226318 
	C651.324219,274.878510 648.705566,277.049500 646.619080,280.257721 
	C638.716431,292.408295 630.743530,304.517517 622.533264,316.460938 
	C620.107422,319.989807 620.263428,321.949310 623.936279,324.431854 
	C681.908936,363.616333 739.847900,402.851227 797.685547,442.234680 
	C812.813904,452.536041 828.302795,462.403412 841.376892,475.455444 
	C852.647461,486.706970 858.298584,500.410370 859.206421,516.089783 
	C859.715820,524.887939 859.836731,533.763550 857.288513,542.362366 
	C854.322815,552.370178 848.097900,555.262268 838.593689,551.007202 
	C826.488892,545.587830 816.019409,537.517822 805.230896,529.999695 
	C751.095276,492.274506 695.852905,456.191772 641.139465,419.324463 
	C622.211060,406.570007 603.128113,394.043121 584.290527,381.156891 
	C580.317627,378.439117 578.402649,378.967529 575.583313,382.752319 
	C558.867981,405.191681 541.881287,427.429016 524.942017,449.700958 
	C523.495422,451.602936 522.186340,453.422394 522.330200,455.969757 
	C522.719299,462.857269 520.181458,468.689606 515.643921,473.709198 
	C502.108978,488.681915 488.057190,503.113251 471.710510,515.101929 
	C467.502197,518.188293 462.833466,520.378418 457.824371,521.789551 
	C451.846832,523.473511 445.907684,524.154663 441.127197,519.008057 
	C436.376678,513.893677 435.728333,507.824249 437.526337,501.291077 
	C439.510925,494.079865 443.314301,487.830811 447.918976,482.083588 
	C472.398193,451.530426 496.943848,421.030487 521.484070,390.526245 
	C530.255859,379.622589 538.993164,368.688934 547.930115,357.921661 
	C550.381042,354.968872 550.630676,352.689697 548.913757,349.069611 
	C540.413025,331.145416 538.680725,313.189911 551.231506,296.235565 
	C557.224731,288.139557 564.933899,281.718536 573.847412,276.869324 
	C592.870483,266.520264 611.891968,256.168304 630.926147,245.839661 
	C632.988831,244.720367 634.938416,243.565918 636.401367,241.616898 
	C657.503845,213.502701 678.774658,185.508224 697.609741,155.780258 
	C700.639526,150.998306 703.486877,146.089401 706.184753,141.112427 
	C708.034973,137.699234 709.611755,133.893417 706.788574,130.336411 
	C704.083374,126.927902 700.206055,127.022568 696.240906,127.818123 
	C670.313660,133.020111 645.869629,142.702286 621.458008,152.487350 
	C565.444214,174.939728 511.129913,201.099182 457.080078,227.836990 
	C448.619385,232.022400 440.673340,237.534485 430.833221,238.245102 
	C429.253967,238.359161 428.675446,239.383820 428.080902,240.704208 
	C412.457336,275.400848 392.858276,307.961945 374.082642,340.960968 
	C348.210419,386.432526 320.972168,431.087097 293.290314,475.473846 
	C292.255768,477.132690 291.411591,478.910278 290.262634,481.031342 
	C293.566925,481.877228 295.376038,479.839172 297.831787,478.788879 
z"/>
</svg>

